<svg xmlns="http://www.w3.org/2000/svg" version="1.1" xmlns:xlink="http://www.w3.org/1999/xlink" xmlns:svgjs="http://svgjs.dev/svgjs" width="128" height="128"><svg width="128" height="128" viewBox="0 0 128 128" fill="none" xmlns="http://www.w3.org/2000/svg">
<g clip-path="url(#clip0_11_2)">
<rect width="128" height="128" rx="50" fill="white"></rect>
<path d="M78.5539 44C79.0748 44 79.3353 44.2601 79.3353 44.7802V46.3407C79.3353 46.8609 79.0748 47.1209 78.5539 47.1209C77.2688 47.1209 76.3136 47.5891 75.6885 48.5254C75.0633 49.4616 74.7507 50.6407 74.7507 52.0624V82.2315C74.7507 82.7516 74.4902 83.0117 73.9692 83.0117H70.3745C70.0272 83.0117 69.7146 82.8557 69.4367 82.5436L44.7944 54.2471V74.9493C44.7944 76.3364 45.107 77.5154 45.7322 78.4863C46.3921 79.4226 47.3646 79.8908 48.6497 79.8908C49.1706 79.8908 49.4311 80.1508 49.4311 80.671V82.2315C49.4311 82.7516 49.1706 83.0117 48.6497 83.0117H35.7815C35.2605 83.0117 35 82.7516 35 82.2315V80.671C35 80.1508 35.2605 79.8908 35.7815 79.8908C37.0666 79.8908 38.0217 79.4226 38.6469 78.4863C39.272 77.5154 39.5846 76.3364 39.5846 74.9493V48.4213C39.0636 47.9705 38.5427 47.6411 38.0217 47.433C37.5354 47.225 36.9624 47.1209 36.3024 47.1209C35.7815 47.1209 35.521 46.8609 35.521 46.3407V44.7802C35.521 44.2601 35.7815 44 36.3024 44H45.3154C45.6974 44 46.01 44.156 46.2531 44.4681L69.5409 70.9961V52.0624C69.5409 50.6407 69.211 49.4616 68.5511 48.5254C67.9259 47.5891 66.9708 47.1209 65.6857 47.1209C65.1647 47.1209 64.9042 46.8609 64.9042 46.3407V44.7802C64.9042 44.2601 65.1647 44 65.6857 44H78.5539Z" fill="black"></path>
<path d="M84.9668 74.8973C85.6267 74.2384 86.2866 73.909 86.9465 73.909C87.6411 73.909 88.3184 74.2384 88.9783 74.8973L91.0101 76.9259C91.67 77.5847 92 78.2609 92 78.9545C92 79.648 91.67 80.3242 91.0101 80.9831L88.9783 83.0117C88.3184 83.6706 87.6411 84 86.9465 84C86.2866 84 85.6267 83.6706 84.9668 83.0117L82.8829 80.9831C82.2577 80.3589 81.9451 79.6827 81.9451 78.9545C81.9451 78.2263 82.2577 77.5501 82.8829 76.9259L84.9668 74.8973Z" fill="black"></path>
</g>
<defs>
<clipPath id="SvgjsClipPath1021">
<rect width="128" height="128" fill="white"></rect>
</clipPath>
</defs>
</svg><style>@media (prefers-color-scheme: light) { :root { filter: none; } }
@media (prefers-color-scheme: dark) { :root { filter: none; } }
</style></svg>