<svg width="128" height="128" viewBox="0 0 128 128" fill="none" xmlns="http://www.w3.org/2000/svg">
<g clip-path="url(#clip0_11_2)">
<rect width="128" height="128" rx="50" fill="white"/>
<path d="M85.4205 34C86.1791 34 86.5585 34.3836 86.5585 35.1508V37.4525C86.5585 38.2198 86.1791 38.6034 85.4205 38.6034C83.5493 38.6034 82.1585 39.2939 81.2481 40.6749C80.3378 42.0559 79.8826 43.795 79.8826 45.8921V90.3914C79.8826 91.1586 79.5033 91.5423 78.7447 91.5423H73.5102C73.0045 91.5423 72.5493 91.3121 72.1447 90.8518L36.262 49.1144V79.6502C36.262 81.6961 36.7172 83.4352 37.6275 84.8674C38.5885 86.2484 40.0046 86.9389 41.8758 86.9389C42.6344 86.9389 43.0137 87.3225 43.0137 88.0897V90.3914C43.0137 91.1586 42.6344 91.5423 41.8758 91.5423H23.1379C22.3793 91.5423 22 91.1586 22 90.3914V88.0897C22 87.3225 22.3793 86.9389 23.1379 86.9389C25.0092 86.9389 26.4 86.2484 27.3103 84.8674C28.2207 83.4352 28.6758 81.6961 28.6758 79.6502V40.5215C27.9172 39.8565 27.1586 39.3706 26.4 39.0637C25.6919 38.7568 24.8575 38.6034 23.8965 38.6034C23.1379 38.6034 22.7586 38.2198 22.7586 37.4525V35.1508C22.7586 34.3836 23.1379 34 23.8965 34H37.0207C37.577 34 38.0321 34.2302 38.3862 34.6905L72.2964 73.8192V45.8921C72.2964 43.795 71.816 42.0559 70.855 40.6749C69.9447 39.2939 68.5539 38.6034 66.6826 38.6034C65.924 38.6034 65.5447 38.2198 65.5447 37.4525V35.1508C65.5447 34.3836 65.924 34 66.6826 34H85.4205Z" fill="black"/>
<path d="M94.7586 79.5735C95.7196 78.6016 96.6805 78.1157 97.6414 78.1157C98.6529 78.1157 99.6391 78.6016 100.6 79.5735L103.559 82.5657C104.52 83.5375 105 84.5349 105 85.5579C105 86.5808 104.52 87.5782 103.559 88.5501L100.6 91.5423C99.6391 92.5141 98.6529 93 97.6414 93C96.6805 93 95.7196 92.5141 94.7586 91.5423L91.7242 88.5501C90.8138 87.6294 90.3587 86.632 90.3587 85.5579C90.3587 84.4837 90.8138 83.4863 91.7242 82.5657L94.7586 79.5735Z" fill="black"/>
</g>
<defs>
<clipPath id="clip0_11_2">
<rect width="128" height="128" fill="white"/>
</clipPath>
</defs>
</svg>
