<svg width="123" height="37" viewBox="0 0 123 37" fill="none" xmlns="http://www.w3.org/2000/svg">
<path d="M40.568 -2.86102e-06C41.048 -2.86102e-06 41.288 0.239998 41.288 0.719999V2.16C41.288 2.64 41.048 2.88 40.568 2.88C39.384 2.88 38.504 3.312 37.928 4.176C37.352 5.04 37.064 6.128 37.064 7.44V35.28C37.064 35.76 36.824 36 36.344 36H33.032C32.712 36 32.424 35.856 32.168 35.568L9.464 9.456V28.56C9.464 29.84 9.752 30.928 10.328 31.824C10.936 32.688 11.832 33.12 13.016 33.12C13.496 33.12 13.736 33.36 13.736 33.84V35.28C13.736 35.76 13.496 36 13.016 36H1.16C0.68 36 0.44 35.76 0.44 35.28V33.84C0.44 33.36 0.68 33.12 1.16 33.12C2.344 33.12 3.224 32.688 3.8 31.824C4.376 30.928 4.664 29.84 4.664 28.56V4.08C4.184 3.664 3.704 3.36 3.224 3.168C2.776 2.976 2.248 2.88 1.64 2.88C1.16 2.88 0.92 2.64 0.92 2.16V0.719999C0.92 0.239998 1.16 -2.86102e-06 1.64 -2.86102e-06H9.944C10.296 -2.86102e-06 10.584 0.143997 10.808 0.431997L32.264 24.912V7.44C32.264 6.128 31.96 5.04 31.352 4.176C30.776 3.312 29.896 2.88 28.712 2.88C28.232 2.88 27.992 2.64 27.992 2.16V0.719999C27.992 0.239998 28.232 -2.86102e-06 28.712 -2.86102e-06H40.568ZM53.3161 11.376C55.1401 11.376 56.8201 11.744 58.3561 12.48C59.9241 13.184 61.2681 14.16 62.3881 15.408C63.5081 16.624 64.3721 18 64.9801 19.536C65.6201 21.04 65.9401 22.608 65.9401 24.24C65.9401 26.608 65.3801 28.736 64.2601 30.624C63.1401 32.48 61.6681 33.952 59.8441 35.04C58.0201 36.096 56.0361 36.624 53.8921 36.624C52.0681 36.624 50.3881 36.272 48.8521 35.568C47.3161 34.864 45.9721 33.92 44.8201 32.736C43.7001 31.52 42.8201 30.144 42.1801 28.608C41.5721 27.04 41.2681 25.408 41.2681 23.712C41.2681 21.376 41.8121 19.28 42.9001 17.424C43.9881 15.568 45.4441 14.096 47.2681 13.008C49.0921 11.92 51.1081 11.376 53.3161 11.376ZM55.3801 32.736C55.9881 32.736 56.6601 32.576 57.3961 32.256C58.1321 31.936 58.7721 31.376 59.3161 30.576C59.8921 29.776 60.1801 28.672 60.1801 27.264C60.1801 26.144 59.9561 24.912 59.5081 23.568C59.0921 22.192 58.5001 20.88 57.7321 19.632C56.9961 18.352 56.1161 17.312 55.0921 16.512C54.1001 15.68 53.0121 15.264 51.8281 15.264C50.5161 15.264 49.3801 15.76 48.4201 16.752C47.4601 17.712 46.9801 19.04 46.9801 20.736C46.9801 21.824 47.1881 23.056 47.6041 24.432C48.0521 25.808 48.6441 27.136 49.3801 28.416C50.1481 29.664 51.0441 30.704 52.0681 31.536C53.0921 32.336 54.1961 32.736 55.3801 32.736ZM85.6029 32.544C85.6989 32.672 85.7469 32.816 85.7469 32.976C85.7469 33.168 85.6189 33.344 85.3629 33.504L83.9229 34.416C83.0589 34.96 82.0189 35.472 80.8029 35.952C79.5869 36.4 78.3709 36.624 77.1549 36.624C76.1949 36.624 75.2829 36.4 74.4189 35.952C73.5869 35.504 72.9149 34.752 72.4029 33.696C71.8909 32.608 71.6349 31.12 71.6349 29.232V20.352C71.6349 19.488 71.5869 18.64 71.4909 17.808C71.3949 16.944 71.0909 16.24 70.5789 15.696C70.0989 15.152 69.2829 14.88 68.1309 14.88C67.6509 14.88 67.4109 14.64 67.4109 14.16V12.72C67.4109 12.24 67.6509 12 68.1309 12H71.6349V8.784C71.6349 8.368 71.7789 8.08 72.0669 7.92C72.7709 7.536 73.6989 7.008 74.8509 6.336C76.0029 5.632 77.0269 4.832 77.9229 3.936C77.9869 3.872 78.0669 3.84 78.1629 3.84H78.2589C78.3229 3.84 78.3549 3.888 78.3549 3.984V12H84.7869C85.2669 12 85.5069 12.24 85.5069 12.72V14.784C85.5069 15.264 85.2669 15.504 84.7869 15.504H78.3549V29.232C78.3549 30.48 78.5469 31.344 78.9309 31.824C79.3149 32.272 79.7949 32.496 80.3709 32.496C80.9149 32.496 81.4909 32.352 82.0989 32.064C82.7069 31.744 83.2669 31.424 83.7789 31.104C84.0029 30.976 84.1789 30.912 84.3069 30.912C84.4989 30.912 84.6749 31.04 84.8349 31.296L85.6029 32.544ZM94.2594 27.408C94.8034 28.752 95.6674 29.952 96.8514 31.008C98.0674 32.064 99.6034 32.592 101.459 32.592C102.483 32.592 103.555 32.304 104.675 31.728C105.795 31.152 106.771 30.256 107.603 29.04C107.699 28.88 107.827 28.8 107.987 28.8C108.147 28.8 108.307 28.848 108.467 28.944C108.659 29.04 109.139 29.312 109.907 29.76C110.035 29.856 110.099 29.984 110.099 30.144C110.099 30.368 110.003 30.64 109.811 30.96C108.915 32.624 107.699 33.984 106.163 35.04C104.627 36.096 102.627 36.624 100.163 36.624C97.5074 36.624 95.2194 36.032 93.2994 34.848C91.3794 33.664 89.8914 32.096 88.8354 30.144C87.8114 28.192 87.2994 26.064 87.2994 23.76C87.2994 21.552 87.6194 19.664 88.2594 18.096C88.9314 16.496 89.8114 15.216 90.8994 14.256C91.9874 13.264 93.2034 12.544 94.5474 12.096C95.9234 11.616 97.3154 11.376 98.7234 11.376C100.323 11.376 101.731 11.696 102.947 12.336C104.163 12.944 105.187 13.728 106.019 14.688C106.883 15.648 107.523 16.672 107.939 17.76C108.387 18.816 108.611 19.808 108.611 20.736C108.611 20.992 108.467 21.184 108.179 21.312L94.2594 27.408ZM101.411 20.544C101.411 19.008 101.043 17.744 100.307 16.752C99.5714 15.76 98.6434 15.264 97.5234 15.264C96.2114 15.264 95.1714 15.792 94.4034 16.848C93.6354 17.872 93.2514 19.168 93.2514 20.736C93.2514 21.216 93.2674 21.808 93.2994 22.512C93.3634 23.216 93.4914 23.856 93.6834 24.432L101.411 20.544ZM116.227 28.512C116.835 27.904 117.443 27.6 118.051 27.6C118.691 27.6 119.315 27.904 119.923 28.512L121.795 30.384C122.403 30.992 122.707 31.616 122.707 32.256C122.707 32.896 122.403 33.52 121.795 34.128L119.923 36C119.315 36.608 118.691 36.912 118.051 36.912C117.443 36.912 116.835 36.608 116.227 36L114.307 34.128C113.731 33.552 113.443 32.928 113.443 32.256C113.443 31.584 113.731 30.96 114.307 30.384L116.227 28.512Z" fill="black"/>
</svg>
